# xmcd
# 
# Track frame offsets:
#     150
#     7275
#     25162
#     38812
#     55912
#     75412
#     92400
#     100537
#     119362
#     136162
#     154462
# 
# Disc length: 2347
# 
# Revision: 0
# Processed by: cddbd v1.5.2PL0 Copyright (c) Steve Scherf et al.
# Submitted via: fre:ac v1.0.31
# 
DISCID=7f09290b
DTITLE=sora tob sakana - World Fragment Tour
DYEAR=2019
DGENRE=Soundtrack
TTITLE0=whale song
TTITLE1=knock!knock!
TTITLE2=FASHION
TTITLE3=タイムトラベルして
TTITLE4=燃えない呪文
TTITLE5=嘘つき達に暇はない
TTITLE6=暇
TTITLE7=ありふれた群青
TTITLE8=シューティングスター・ランデブー
TTITLE9=World Fragment
TTITLE10=WALK
EXTD=
EXTT0=
EXTT1=
EXTT2=
EXTT3=
EXTT4=
EXTT5=
EXTT6=
EXTT7=
EXTT8=
EXTT9=
EXTT10=
PLAYORDER=
